inDegrees=yes
name=ik_S56_A13_T02
DataType=double
version=3
OpenSimVersion=4.3-2021-08-27-4bc7ad9
endheader
time	pelvis_tilt	pelvis_list	pelvis_rotation	pelvis_tx	pelvis_ty	pelvis_tz	hip_flexion_r	hip_adduction_r	hip_rotation_r	knee_angle_r	knee_angle_r_beta	ankle_angle_r	subtalar_angle_r	mtp_angle_r	hip_flexion_l	hip_adduction_l	hip_rotation_l	knee_angle_l	knee_angle_l_beta	ankle_angle_l	subtalar_angle_l	mtp_angle_l	lumbar_extension	lumbar_bending	lumbar_rotation	arm_flex_r	arm_add_r	arm_rot_r	elbow_flex_r	pro_sup_r	wrist_flex_r	wrist_dev_r	arm_flex_l	arm_add_l	arm_rot_l	elbow_flex_l	pro_sup_l	wrist_flex_l	wrist_dev_l
3.220000000000002	-0.3575690165590211	1.470364914761353	33.05305928935844	0	0.9399999999999999	0	23.3972879568786	-8.232556189375371	-7.098656128525643	27.96161137875779	0.4880221827224347	0	0	0	23.3972879568786	-8.232556189375371	-7.098656128525643	27.96161137875779	0.4880221827224347	0	0	0	2.443532959201557	2.690387422140494	8.364095067298285	96.42230816357689	-12.95344978580182	62.09171765889581	34.5880768675368	123.8568065087542	0	0	107.7302731901652	-2.093764099113348	46.21605450274138	8.96882372698165	102.6835084976239	0	0
3.240000000000002	-0.3411570141984619	1.469661649967347	33.01503966825408	0	0.9399999999999999	0	23.40767778822203	-8.235273033943429	-7.101526602603569	27.97129871584015	0.4881912586502724	0	0	0	23.40767778822203	-8.235273033943429	-7.101526602603569	27.97129871584015	0.4881912586502724	0	0	0	2.454318888832773	2.683753719023632	8.422519629686132	96.92056964846908	-12.57842724314653	62.36597537230168	34.34472770332713	124.4709616275057	0	0	107.713498373355	-1.842425706753498	46.18274514117619	9.149723753000311	100.8580896855266	0	0
3.260000000000002	-0.3381348747453609	1.467812838301269	32.96147662405782	0	0.9399999999999999	0	23.41742301493496	-8.23781522009191	-7.104215460096949	27.98039777742796	0.4883500672338214	0	0	0	23.41742301493496	-8.23781522009191	-7.104215460096949	27.98039777742796	0.4883500672338214	0	0	0	2.45351775296003	2.683154022979843	8.476089446444439	97.28735832958992	-12.2151142745098	62.65212277894053	33.8592115557097	124.1700365304923	0	0	107.743592448812	-1.628312154626642	46.07392184562261	9.345258239504965	99.49066706039781	0	0
3.280000000000002	-0.3371220828355646	1.472073674112449	32.90042675621336	0	0.9399999999999999	0	23.42567422922616	-8.23996996491098	-7.106493979695489	27.98808793359603	0.4884842857789468	0	0	0	23.42567422922616	-8.23996996491098	-7.106493979695489	27.98808793359603	0.4884842857789468	0	0	0	2.454200511882334	2.68916395891395	8.539310819296089	97.64897471254282	-11.97919980352282	62.90695242358613	33.73658711371385	124.8250015232376	0	0	107.7600872954707	-1.400394072935912	45.96461675884047	9.583640986520344	98.50922032554446	0	0
3.300000000000002	-0.2821335030089078	1.473909343640004	32.85977641406407	0	0.9399999999999999	0	23.43512483075596	-8.242439501989596	-7.109105023191157	27.99688589180981	0.4886378391172301	0	0	0	23.43512483075596	-8.242439501989596	-7.109105023191157	27.99688589180981	0.4886378391172301	0	0	0	2.500459341342474	2.661169794343674	8.552492114723291	97.80705979465166	-11.8153506261103	63.13673075179479	33.47253492152483	124.5140948026477	0	0	107.7425611809362	-1.206626090899271	46.05139189475645	9.387998997813572	98.48571374437019	0	0
3.320000000000003	-0.2573177238471021	1.466661347007031	32.68823522982066	0	0.9399999999999999	0	23.44799864173675	-8.245807722824098	-7.112665324131579	28.00884439231438	0.4888465543246364	0	0	0	23.44799864173675	-8.245807722824098	-7.112665324131579	28.00884439231438	0.4888465543246364	0	0	0	2.515437403779652	2.648211277556731	8.664667688332568	98.20224698043103	-11.65229122949471	63.75144378494517	33.45686498947546	125.7892355066134	0	0	107.7174500765525	-0.9988280053299001	46.2106546140266	10.11744376982861	96.33465282204669	0	0
3.340000000000003	-0.2566013694942083	1.480385637502547	32.53581374213964	0	0.9399999999999999	0	23.46113278582045	-8.249231270152674	-7.116290060678199	28.02107410860435	0.4890600031404811	0	0	0	23.46113278582045	-8.249231270152674	-7.116290060678199	28.02107410860435	0.4890600031404811	0	0	0	2.520917084975715	2.666021821635256	8.78376698788113	98.22788796949678	-11.63279765376227	63.74578260692309	33.43837752069022	126.6882049037689	0	0	107.7314162119446	-0.8530090974475696	46.35564079589024	10.41170058567365	94.77323725802603	0	0
